<svg xmlns="http://www.w3.org/2000/svg" viewBox="44 60 186 128">
  <rect x="118" y="96" width="72" height="86" rx="14" fill="#54565c" stroke="#2f3036" stroke-width="3.5"/>
  <g stroke="#eef0f2" stroke-width="2.8" stroke-linecap="round" fill="none">
    <path d="M154,116 L154,132"/><path d="M135,133 L173,133"/>
    <path d="M135,133 L135,151"/><path d="M154,133 L154,153"/><path d="M173,133 L173,151"/>
  </g>
  <circle cx="154" cy="115" r="5" fill="#eef0f2"/><circle cx="154" cy="133" r="3.6" fill="#eef0f2"/>
  <circle cx="135" cy="155" r="4.6" fill="#eef0f2"/><circle cx="154" cy="157" r="4.6" fill="#eef0f2"/><circle cx="173" cy="155" r="4.6" fill="#eef0f2"/>
  <text x="154" y="177" fill="#e6e7ea" font-family="Arial,Helvetica,sans-serif" font-weight="700" font-size="14" text-anchor="middle">F1ATB</text>
  <g stroke="#17181c" stroke-width="5.5" stroke-linecap="round"><path d="M192,120 L214,120"/><path d="M192,139 L214,139"/><path d="M192,158 L214,158"/></g>
  <polygon points="224,120 213,113.5 213,126.5" fill="#17181c"/>
  <polygon points="224,139 213,132.5 213,145.5" fill="#17181c"/>
  <polygon points="224,158 213,151.5 213,164.5" fill="#17181c"/>
  <path d="M100,120 C100,142 106,150 118,150" fill="none" stroke="#17181c" stroke-width="8" stroke-linecap="round"/>
  <polygon points="70,66 160,88 138,128 48,106" fill="#17181c"/>
  <polygon points="72.1,67.9 156.6,88.5 135.9,126.1 51.4,105.5" fill="#ffffff"/>
  <polygon points="75.1,71.6 97.3,77 89.3,91.6 67.1,86.2" fill="#3f4149"/>
  <polygon points="101.8,78.1 124,83.5 116,98.1 93.8,92.7" fill="#3f4149"/>
  <polygon points="128.5,84.6 150.7,90 142.7,104.6 120.5,99.2" fill="#3f4149"/>
  <polygon points="65.3,89.4 87.5,94.8 79.5,109.4 57.3,104" fill="#3f4149"/>
  <polygon points="92,95.9 114.2,101.3 106.2,115.9 84,110.5" fill="#3f4149"/>
  <polygon points="118.7,102.4 140.9,107.8 132.9,122.4 110.7,117" fill="#3f4149"/>
</svg>
